<mxfile host="Electron" agent="Mozilla/5.0 (Windows NT 10.0; Win64; x64) AppleWebKit/537.36 (KHTML, like Gecko) draw.io/24.7.17 Chrome/128.0.6613.36 Electron/32.0.1 Safari/537.36" version="24.7.17">
  <diagram name="第 1 页" id="GqaYeDAcBa39iaGWTPDn">
    <mxGraphModel dx="2074" dy="1205" grid="1" gridSize="10" guides="1" tooltips="1" connect="1" arrows="1" fold="1" page="1" pageScale="1" pageWidth="827" pageHeight="1169" math="0" shadow="0">
      <root>
        <mxCell id="0" />
        <mxCell id="1" parent="0" />
        <mxCell id="_3a8YiENMzKRKPIrLzeu-1" value="" style="rounded=0;whiteSpace=wrap;html=1;" vertex="1" parent="1">
          <mxGeometry x="360" y="440" width="400" height="680" as="geometry" />
        </mxCell>
        <mxCell id="_3a8YiENMzKRKPIrLzeu-9" value="" style="endArrow=classic;html=1;rounded=0;" edge="1" parent="1">
          <mxGeometry width="50" height="50" relative="1" as="geometry">
            <mxPoint x="280" y="480" as="sourcePoint" />
            <mxPoint x="360" y="480" as="targetPoint" />
          </mxGeometry>
        </mxCell>
        <mxCell id="_3a8YiENMzKRKPIrLzeu-17" value="&lt;span style=&quot;font-size: 18px;&quot;&gt;a&lt;/span&gt;" style="text;html=1;align=left;verticalAlign=middle;whiteSpace=wrap;rounded=0;" vertex="1" parent="1">
          <mxGeometry x="360" y="460" width="200" height="40" as="geometry" />
        </mxCell>
        <mxCell id="_3a8YiENMzKRKPIrLzeu-25" value="&lt;span style=&quot;font-size: 18px;&quot;&gt;a&lt;/span&gt;" style="text;html=1;align=right;verticalAlign=middle;whiteSpace=wrap;rounded=0;" vertex="1" parent="1">
          <mxGeometry x="560" y="460" width="200" height="40" as="geometry" />
        </mxCell>
        <mxCell id="_3a8YiENMzKRKPIrLzeu-26" value="" style="endArrow=classic;html=1;rounded=0;" edge="1" parent="1">
          <mxGeometry width="50" height="50" relative="1" as="geometry">
            <mxPoint x="840" y="480" as="sourcePoint" />
            <mxPoint x="760" y="479.5" as="targetPoint" />
          </mxGeometry>
        </mxCell>
        <mxCell id="_3a8YiENMzKRKPIrLzeu-27" value="" style="endArrow=classic;html=1;rounded=0;" edge="1" parent="1">
          <mxGeometry width="50" height="50" relative="1" as="geometry">
            <mxPoint x="280" y="520" as="sourcePoint" />
            <mxPoint x="360" y="520" as="targetPoint" />
          </mxGeometry>
        </mxCell>
        <mxCell id="_3a8YiENMzKRKPIrLzeu-28" value="&lt;span style=&quot;font-size: 18px;&quot;&gt;a&lt;/span&gt;" style="text;html=1;align=left;verticalAlign=middle;whiteSpace=wrap;rounded=0;" vertex="1" parent="1">
          <mxGeometry x="360" y="500" width="200" height="40" as="geometry" />
        </mxCell>
        <mxCell id="_3a8YiENMzKRKPIrLzeu-29" value="&lt;span style=&quot;font-size: 18px;&quot;&gt;a&lt;/span&gt;" style="text;html=1;align=right;verticalAlign=middle;whiteSpace=wrap;rounded=0;" vertex="1" parent="1">
          <mxGeometry x="560" y="500" width="200" height="40" as="geometry" />
        </mxCell>
        <mxCell id="_3a8YiENMzKRKPIrLzeu-30" value="" style="endArrow=classic;html=1;rounded=0;" edge="1" parent="1">
          <mxGeometry width="50" height="50" relative="1" as="geometry">
            <mxPoint x="840" y="520" as="sourcePoint" />
            <mxPoint x="760" y="519.5" as="targetPoint" />
          </mxGeometry>
        </mxCell>
        <mxCell id="_3a8YiENMzKRKPIrLzeu-31" value="" style="endArrow=classic;html=1;rounded=0;" edge="1" parent="1">
          <mxGeometry width="50" height="50" relative="1" as="geometry">
            <mxPoint x="280" y="560" as="sourcePoint" />
            <mxPoint x="360" y="560" as="targetPoint" />
          </mxGeometry>
        </mxCell>
        <mxCell id="_3a8YiENMzKRKPIrLzeu-32" value="&lt;span style=&quot;font-size: 18px;&quot;&gt;a&lt;/span&gt;" style="text;html=1;align=left;verticalAlign=middle;whiteSpace=wrap;rounded=0;" vertex="1" parent="1">
          <mxGeometry x="360" y="540" width="200" height="40" as="geometry" />
        </mxCell>
        <mxCell id="_3a8YiENMzKRKPIrLzeu-33" value="&lt;span style=&quot;font-size: 18px;&quot;&gt;a&lt;/span&gt;" style="text;html=1;align=right;verticalAlign=middle;whiteSpace=wrap;rounded=0;" vertex="1" parent="1">
          <mxGeometry x="560" y="540" width="200" height="40" as="geometry" />
        </mxCell>
        <mxCell id="_3a8YiENMzKRKPIrLzeu-34" value="" style="endArrow=classic;html=1;rounded=0;" edge="1" parent="1">
          <mxGeometry width="50" height="50" relative="1" as="geometry">
            <mxPoint x="840" y="560" as="sourcePoint" />
            <mxPoint x="760" y="559.5" as="targetPoint" />
          </mxGeometry>
        </mxCell>
        <mxCell id="_3a8YiENMzKRKPIrLzeu-35" value="" style="endArrow=classic;html=1;rounded=0;" edge="1" parent="1">
          <mxGeometry width="50" height="50" relative="1" as="geometry">
            <mxPoint x="280" y="600" as="sourcePoint" />
            <mxPoint x="360" y="600" as="targetPoint" />
          </mxGeometry>
        </mxCell>
        <mxCell id="_3a8YiENMzKRKPIrLzeu-36" value="&lt;span style=&quot;font-size: 18px;&quot;&gt;a&lt;/span&gt;" style="text;html=1;align=left;verticalAlign=middle;whiteSpace=wrap;rounded=0;" vertex="1" parent="1">
          <mxGeometry x="360" y="580" width="200" height="40" as="geometry" />
        </mxCell>
        <mxCell id="_3a8YiENMzKRKPIrLzeu-37" value="&lt;span style=&quot;font-size: 18px;&quot;&gt;a&lt;/span&gt;" style="text;html=1;align=right;verticalAlign=middle;whiteSpace=wrap;rounded=0;" vertex="1" parent="1">
          <mxGeometry x="560" y="580" width="200" height="40" as="geometry" />
        </mxCell>
        <mxCell id="_3a8YiENMzKRKPIrLzeu-38" value="" style="endArrow=classic;html=1;rounded=0;" edge="1" parent="1">
          <mxGeometry width="50" height="50" relative="1" as="geometry">
            <mxPoint x="840" y="600" as="sourcePoint" />
            <mxPoint x="760" y="599.5" as="targetPoint" />
          </mxGeometry>
        </mxCell>
        <mxCell id="_3a8YiENMzKRKPIrLzeu-39" value="" style="endArrow=classic;html=1;rounded=0;" edge="1" parent="1">
          <mxGeometry width="50" height="50" relative="1" as="geometry">
            <mxPoint x="280" y="640" as="sourcePoint" />
            <mxPoint x="360" y="640" as="targetPoint" />
          </mxGeometry>
        </mxCell>
        <mxCell id="_3a8YiENMzKRKPIrLzeu-40" value="&lt;span style=&quot;font-size: 18px;&quot;&gt;a&lt;/span&gt;" style="text;html=1;align=left;verticalAlign=middle;whiteSpace=wrap;rounded=0;" vertex="1" parent="1">
          <mxGeometry x="360" y="620" width="200" height="40" as="geometry" />
        </mxCell>
        <mxCell id="_3a8YiENMzKRKPIrLzeu-41" value="&lt;span style=&quot;font-size: 18px;&quot;&gt;a&lt;/span&gt;" style="text;html=1;align=right;verticalAlign=middle;whiteSpace=wrap;rounded=0;" vertex="1" parent="1">
          <mxGeometry x="560" y="620" width="200" height="40" as="geometry" />
        </mxCell>
        <mxCell id="_3a8YiENMzKRKPIrLzeu-42" value="" style="endArrow=classic;html=1;rounded=0;" edge="1" parent="1">
          <mxGeometry width="50" height="50" relative="1" as="geometry">
            <mxPoint x="840" y="640" as="sourcePoint" />
            <mxPoint x="760" y="639.5" as="targetPoint" />
          </mxGeometry>
        </mxCell>
        <mxCell id="_3a8YiENMzKRKPIrLzeu-43" value="" style="endArrow=classic;html=1;rounded=0;" edge="1" parent="1">
          <mxGeometry width="50" height="50" relative="1" as="geometry">
            <mxPoint x="280" y="680" as="sourcePoint" />
            <mxPoint x="360" y="680" as="targetPoint" />
          </mxGeometry>
        </mxCell>
        <mxCell id="_3a8YiENMzKRKPIrLzeu-44" value="&lt;span style=&quot;font-size: 18px;&quot;&gt;a&lt;/span&gt;" style="text;html=1;align=left;verticalAlign=middle;whiteSpace=wrap;rounded=0;" vertex="1" parent="1">
          <mxGeometry x="360" y="660" width="200" height="40" as="geometry" />
        </mxCell>
        <mxCell id="_3a8YiENMzKRKPIrLzeu-45" value="&lt;span style=&quot;font-size: 18px;&quot;&gt;a&lt;/span&gt;" style="text;html=1;align=right;verticalAlign=middle;whiteSpace=wrap;rounded=0;" vertex="1" parent="1">
          <mxGeometry x="560" y="660" width="200" height="40" as="geometry" />
        </mxCell>
        <mxCell id="_3a8YiENMzKRKPIrLzeu-46" value="" style="endArrow=classic;html=1;rounded=0;" edge="1" parent="1">
          <mxGeometry width="50" height="50" relative="1" as="geometry">
            <mxPoint x="840" y="680" as="sourcePoint" />
            <mxPoint x="760" y="679.5" as="targetPoint" />
          </mxGeometry>
        </mxCell>
        <mxCell id="_3a8YiENMzKRKPIrLzeu-47" value="" style="endArrow=classic;html=1;rounded=0;" edge="1" parent="1">
          <mxGeometry width="50" height="50" relative="1" as="geometry">
            <mxPoint x="280" y="720" as="sourcePoint" />
            <mxPoint x="360" y="720" as="targetPoint" />
          </mxGeometry>
        </mxCell>
        <mxCell id="_3a8YiENMzKRKPIrLzeu-48" value="&lt;span style=&quot;font-size: 18px;&quot;&gt;a&lt;/span&gt;" style="text;html=1;align=left;verticalAlign=middle;whiteSpace=wrap;rounded=0;" vertex="1" parent="1">
          <mxGeometry x="360" y="700" width="200" height="40" as="geometry" />
        </mxCell>
        <mxCell id="_3a8YiENMzKRKPIrLzeu-49" value="&lt;span style=&quot;font-size: 18px;&quot;&gt;a&lt;/span&gt;" style="text;html=1;align=right;verticalAlign=middle;whiteSpace=wrap;rounded=0;" vertex="1" parent="1">
          <mxGeometry x="560" y="700" width="200" height="40" as="geometry" />
        </mxCell>
        <mxCell id="_3a8YiENMzKRKPIrLzeu-50" value="" style="endArrow=classic;html=1;rounded=0;" edge="1" parent="1">
          <mxGeometry width="50" height="50" relative="1" as="geometry">
            <mxPoint x="840" y="720" as="sourcePoint" />
            <mxPoint x="760" y="719.5" as="targetPoint" />
          </mxGeometry>
        </mxCell>
        <mxCell id="_3a8YiENMzKRKPIrLzeu-51" value="" style="endArrow=classic;html=1;rounded=0;" edge="1" parent="1">
          <mxGeometry width="50" height="50" relative="1" as="geometry">
            <mxPoint x="280" y="760" as="sourcePoint" />
            <mxPoint x="360" y="760" as="targetPoint" />
          </mxGeometry>
        </mxCell>
        <mxCell id="_3a8YiENMzKRKPIrLzeu-52" value="&lt;span style=&quot;font-size: 18px;&quot;&gt;a&lt;/span&gt;" style="text;html=1;align=left;verticalAlign=middle;whiteSpace=wrap;rounded=0;" vertex="1" parent="1">
          <mxGeometry x="360" y="740" width="200" height="40" as="geometry" />
        </mxCell>
        <mxCell id="_3a8YiENMzKRKPIrLzeu-53" value="&lt;span style=&quot;font-size: 18px;&quot;&gt;a&lt;/span&gt;" style="text;html=1;align=right;verticalAlign=middle;whiteSpace=wrap;rounded=0;" vertex="1" parent="1">
          <mxGeometry x="560" y="740" width="200" height="40" as="geometry" />
        </mxCell>
        <mxCell id="_3a8YiENMzKRKPIrLzeu-54" value="" style="endArrow=classic;html=1;rounded=0;" edge="1" parent="1">
          <mxGeometry width="50" height="50" relative="1" as="geometry">
            <mxPoint x="840" y="760" as="sourcePoint" />
            <mxPoint x="760" y="759.5" as="targetPoint" />
          </mxGeometry>
        </mxCell>
        <mxCell id="_3a8YiENMzKRKPIrLzeu-55" value="" style="endArrow=classic;html=1;rounded=0;" edge="1" parent="1">
          <mxGeometry width="50" height="50" relative="1" as="geometry">
            <mxPoint x="280" y="800" as="sourcePoint" />
            <mxPoint x="360" y="800" as="targetPoint" />
          </mxGeometry>
        </mxCell>
        <mxCell id="_3a8YiENMzKRKPIrLzeu-56" value="&lt;span style=&quot;font-size: 18px;&quot;&gt;a&lt;/span&gt;" style="text;html=1;align=left;verticalAlign=middle;whiteSpace=wrap;rounded=0;" vertex="1" parent="1">
          <mxGeometry x="360" y="780" width="200" height="40" as="geometry" />
        </mxCell>
        <mxCell id="_3a8YiENMzKRKPIrLzeu-57" value="&lt;span style=&quot;font-size: 18px;&quot;&gt;a&lt;/span&gt;" style="text;html=1;align=right;verticalAlign=middle;whiteSpace=wrap;rounded=0;" vertex="1" parent="1">
          <mxGeometry x="560" y="780" width="200" height="40" as="geometry" />
        </mxCell>
        <mxCell id="_3a8YiENMzKRKPIrLzeu-58" value="" style="endArrow=classic;html=1;rounded=0;" edge="1" parent="1">
          <mxGeometry width="50" height="50" relative="1" as="geometry">
            <mxPoint x="840" y="800" as="sourcePoint" />
            <mxPoint x="760" y="799.5" as="targetPoint" />
          </mxGeometry>
        </mxCell>
        <mxCell id="_3a8YiENMzKRKPIrLzeu-59" value="" style="endArrow=classic;html=1;rounded=0;" edge="1" parent="1">
          <mxGeometry width="50" height="50" relative="1" as="geometry">
            <mxPoint x="280" y="840" as="sourcePoint" />
            <mxPoint x="360" y="840" as="targetPoint" />
          </mxGeometry>
        </mxCell>
        <mxCell id="_3a8YiENMzKRKPIrLzeu-60" value="&lt;span style=&quot;font-size: 18px;&quot;&gt;a&lt;/span&gt;" style="text;html=1;align=left;verticalAlign=middle;whiteSpace=wrap;rounded=0;" vertex="1" parent="1">
          <mxGeometry x="360" y="820" width="200" height="40" as="geometry" />
        </mxCell>
        <mxCell id="_3a8YiENMzKRKPIrLzeu-61" value="&lt;span style=&quot;font-size: 18px;&quot;&gt;a&lt;/span&gt;" style="text;html=1;align=right;verticalAlign=middle;whiteSpace=wrap;rounded=0;" vertex="1" parent="1">
          <mxGeometry x="560" y="820" width="200" height="40" as="geometry" />
        </mxCell>
        <mxCell id="_3a8YiENMzKRKPIrLzeu-62" value="" style="endArrow=classic;html=1;rounded=0;" edge="1" parent="1">
          <mxGeometry width="50" height="50" relative="1" as="geometry">
            <mxPoint x="840" y="840" as="sourcePoint" />
            <mxPoint x="760" y="839.5" as="targetPoint" />
          </mxGeometry>
        </mxCell>
        <mxCell id="_3a8YiENMzKRKPIrLzeu-63" value="" style="endArrow=classic;html=1;rounded=0;" edge="1" parent="1">
          <mxGeometry width="50" height="50" relative="1" as="geometry">
            <mxPoint x="280" y="880" as="sourcePoint" />
            <mxPoint x="360" y="880" as="targetPoint" />
          </mxGeometry>
        </mxCell>
        <mxCell id="_3a8YiENMzKRKPIrLzeu-64" value="&lt;span style=&quot;font-size: 18px;&quot;&gt;a&lt;/span&gt;" style="text;html=1;align=left;verticalAlign=middle;whiteSpace=wrap;rounded=0;" vertex="1" parent="1">
          <mxGeometry x="360" y="860" width="200" height="40" as="geometry" />
        </mxCell>
        <mxCell id="_3a8YiENMzKRKPIrLzeu-65" value="&lt;span style=&quot;font-size: 18px;&quot;&gt;a&lt;/span&gt;" style="text;html=1;align=right;verticalAlign=middle;whiteSpace=wrap;rounded=0;" vertex="1" parent="1">
          <mxGeometry x="560" y="860" width="200" height="40" as="geometry" />
        </mxCell>
        <mxCell id="_3a8YiENMzKRKPIrLzeu-66" value="" style="endArrow=classic;html=1;rounded=0;" edge="1" parent="1">
          <mxGeometry width="50" height="50" relative="1" as="geometry">
            <mxPoint x="840" y="880" as="sourcePoint" />
            <mxPoint x="760" y="879.5" as="targetPoint" />
          </mxGeometry>
        </mxCell>
        <mxCell id="_3a8YiENMzKRKPIrLzeu-67" value="" style="endArrow=classic;html=1;rounded=0;" edge="1" parent="1">
          <mxGeometry width="50" height="50" relative="1" as="geometry">
            <mxPoint x="280" y="920" as="sourcePoint" />
            <mxPoint x="360" y="920" as="targetPoint" />
          </mxGeometry>
        </mxCell>
        <mxCell id="_3a8YiENMzKRKPIrLzeu-68" value="&lt;span style=&quot;font-size: 18px;&quot;&gt;a&lt;/span&gt;" style="text;html=1;align=left;verticalAlign=middle;whiteSpace=wrap;rounded=0;" vertex="1" parent="1">
          <mxGeometry x="360" y="900" width="200" height="40" as="geometry" />
        </mxCell>
        <mxCell id="_3a8YiENMzKRKPIrLzeu-69" value="&lt;span style=&quot;font-size: 18px;&quot;&gt;a&lt;/span&gt;" style="text;html=1;align=right;verticalAlign=middle;whiteSpace=wrap;rounded=0;" vertex="1" parent="1">
          <mxGeometry x="560" y="900" width="200" height="40" as="geometry" />
        </mxCell>
        <mxCell id="_3a8YiENMzKRKPIrLzeu-70" value="" style="endArrow=classic;html=1;rounded=0;" edge="1" parent="1">
          <mxGeometry width="50" height="50" relative="1" as="geometry">
            <mxPoint x="840" y="920" as="sourcePoint" />
            <mxPoint x="760" y="919.5" as="targetPoint" />
          </mxGeometry>
        </mxCell>
        <mxCell id="_3a8YiENMzKRKPIrLzeu-71" value="" style="endArrow=classic;html=1;rounded=0;" edge="1" parent="1">
          <mxGeometry width="50" height="50" relative="1" as="geometry">
            <mxPoint x="280" y="960" as="sourcePoint" />
            <mxPoint x="360" y="960" as="targetPoint" />
          </mxGeometry>
        </mxCell>
        <mxCell id="_3a8YiENMzKRKPIrLzeu-72" value="&lt;span style=&quot;font-size: 18px;&quot;&gt;a&lt;/span&gt;" style="text;html=1;align=left;verticalAlign=middle;whiteSpace=wrap;rounded=0;" vertex="1" parent="1">
          <mxGeometry x="360" y="940" width="200" height="40" as="geometry" />
        </mxCell>
        <mxCell id="_3a8YiENMzKRKPIrLzeu-73" value="&lt;span style=&quot;font-size: 18px;&quot;&gt;a&lt;/span&gt;" style="text;html=1;align=right;verticalAlign=middle;whiteSpace=wrap;rounded=0;" vertex="1" parent="1">
          <mxGeometry x="560" y="940" width="200" height="40" as="geometry" />
        </mxCell>
        <mxCell id="_3a8YiENMzKRKPIrLzeu-74" value="" style="endArrow=classic;html=1;rounded=0;" edge="1" parent="1">
          <mxGeometry width="50" height="50" relative="1" as="geometry">
            <mxPoint x="840" y="960" as="sourcePoint" />
            <mxPoint x="760" y="959.5" as="targetPoint" />
          </mxGeometry>
        </mxCell>
        <mxCell id="_3a8YiENMzKRKPIrLzeu-75" value="" style="endArrow=classic;html=1;rounded=0;" edge="1" parent="1">
          <mxGeometry width="50" height="50" relative="1" as="geometry">
            <mxPoint x="280" y="1000" as="sourcePoint" />
            <mxPoint x="360" y="1000" as="targetPoint" />
          </mxGeometry>
        </mxCell>
        <mxCell id="_3a8YiENMzKRKPIrLzeu-76" value="&lt;span style=&quot;font-size: 18px;&quot;&gt;a&lt;/span&gt;" style="text;html=1;align=left;verticalAlign=middle;whiteSpace=wrap;rounded=0;" vertex="1" parent="1">
          <mxGeometry x="360" y="980" width="200" height="40" as="geometry" />
        </mxCell>
        <mxCell id="_3a8YiENMzKRKPIrLzeu-77" value="&lt;span style=&quot;font-size: 18px;&quot;&gt;a&lt;/span&gt;" style="text;html=1;align=right;verticalAlign=middle;whiteSpace=wrap;rounded=0;" vertex="1" parent="1">
          <mxGeometry x="560" y="980" width="200" height="40" as="geometry" />
        </mxCell>
        <mxCell id="_3a8YiENMzKRKPIrLzeu-78" value="" style="endArrow=classic;html=1;rounded=0;" edge="1" parent="1">
          <mxGeometry width="50" height="50" relative="1" as="geometry">
            <mxPoint x="840" y="1000" as="sourcePoint" />
            <mxPoint x="760" y="999.5" as="targetPoint" />
          </mxGeometry>
        </mxCell>
        <mxCell id="_3a8YiENMzKRKPIrLzeu-79" value="" style="endArrow=classic;html=1;rounded=0;" edge="1" parent="1">
          <mxGeometry width="50" height="50" relative="1" as="geometry">
            <mxPoint x="280" y="1040" as="sourcePoint" />
            <mxPoint x="360" y="1040" as="targetPoint" />
          </mxGeometry>
        </mxCell>
        <mxCell id="_3a8YiENMzKRKPIrLzeu-80" value="&lt;span style=&quot;font-size: 18px;&quot;&gt;a&lt;/span&gt;" style="text;html=1;align=left;verticalAlign=middle;whiteSpace=wrap;rounded=0;" vertex="1" parent="1">
          <mxGeometry x="360" y="1020" width="200" height="40" as="geometry" />
        </mxCell>
        <mxCell id="_3a8YiENMzKRKPIrLzeu-81" value="&lt;span style=&quot;font-size: 18px;&quot;&gt;a&lt;/span&gt;" style="text;html=1;align=right;verticalAlign=middle;whiteSpace=wrap;rounded=0;" vertex="1" parent="1">
          <mxGeometry x="560" y="1020" width="200" height="40" as="geometry" />
        </mxCell>
        <mxCell id="_3a8YiENMzKRKPIrLzeu-82" value="" style="endArrow=classic;html=1;rounded=0;" edge="1" parent="1">
          <mxGeometry width="50" height="50" relative="1" as="geometry">
            <mxPoint x="840" y="1040" as="sourcePoint" />
            <mxPoint x="760" y="1039.5" as="targetPoint" />
          </mxGeometry>
        </mxCell>
        <mxCell id="_3a8YiENMzKRKPIrLzeu-83" value="" style="endArrow=classic;html=1;rounded=0;" edge="1" parent="1">
          <mxGeometry width="50" height="50" relative="1" as="geometry">
            <mxPoint x="280" y="1080" as="sourcePoint" />
            <mxPoint x="360" y="1080" as="targetPoint" />
          </mxGeometry>
        </mxCell>
        <mxCell id="_3a8YiENMzKRKPIrLzeu-84" value="&lt;span style=&quot;font-size: 18px;&quot;&gt;a&lt;/span&gt;" style="text;html=1;align=left;verticalAlign=middle;whiteSpace=wrap;rounded=0;" vertex="1" parent="1">
          <mxGeometry x="360" y="1060" width="200" height="40" as="geometry" />
        </mxCell>
        <mxCell id="_3a8YiENMzKRKPIrLzeu-85" value="&lt;span style=&quot;font-size: 18px;&quot;&gt;a&lt;/span&gt;" style="text;html=1;align=right;verticalAlign=middle;whiteSpace=wrap;rounded=0;" vertex="1" parent="1">
          <mxGeometry x="560" y="1060" width="200" height="40" as="geometry" />
        </mxCell>
        <mxCell id="_3a8YiENMzKRKPIrLzeu-86" value="" style="endArrow=classic;html=1;rounded=0;" edge="1" parent="1">
          <mxGeometry width="50" height="50" relative="1" as="geometry">
            <mxPoint x="840" y="1080" as="sourcePoint" />
            <mxPoint x="760" y="1079.5" as="targetPoint" />
          </mxGeometry>
        </mxCell>
        <mxCell id="_3a8YiENMzKRKPIrLzeu-87" value="&lt;font style=&quot;font-size: 18px;&quot;&gt;module&lt;/font&gt;" style="text;html=1;align=center;verticalAlign=middle;whiteSpace=wrap;rounded=0;" vertex="1" parent="1">
          <mxGeometry x="530" y="440" width="60" height="30" as="geometry" />
        </mxCell>
      </root>
    </mxGraphModel>
  </diagram>
</mxfile>
